Coordinates
version=1
nRows=6
nColumns=34
inDegrees=yes

Units are S.I. units (second, meters, Newtons, ...)
If the header above contains a line with 'inDegrees', this indicates whether rotational values are in degrees (yes) or radians (no).

endheader
time	pelvis_tilt	pelvis_list	pelvis_rotation	pelvis_tx	pelvis_ty	pelvis_tz	hip_flexion_r	hip_adduction_r	hip_rotation_r	knee_angle_r	ankle_angle_r	subtalar_angle_r	mtp_angle_r	hip_flexion_l	hip_adduction_l	hip_rotation_l	knee_angle_l	ankle_angle_l	subtalar_angle_l	mtp_angle_l	lumbar_extension	lumbar_bending	lumbar_rotation	arm_flex_r	arm_add_r	arm_rot_r	elbow_flex_r	pro_sup_r	arm_flex_l	arm_add_l	arm_rot_l	elbow_flex_l	pro_sup_l
      0.00000000	     -6.72172388	      1.80982960	    -58.52082873	      0.05761990	      1.60239719	      0.06501333	    -15.78203318	      5.69540546	      0.40227810	     28.59580183	     13.49502317	     -1.63688916	      0.00000000	     17.03921594	      7.26909699	     -7.87385799	     21.94865646	      6.09617214	     -8.68783514	      0.00000000	    -10.45814153	      3.59741930	      5.30049675	     15.39715278	    -10.19473689	     -3.05652102	     47.64295374	    106.58426804	      0.48697631	     -7.27355434	    -24.48710479	     26.65292583	    119.74817918
      0.01666670	     -6.95335767	      3.01445250	    -57.47983141	      0.04481406	      1.61176722	      0.04449939	    -19.96638945	      6.17935381	     -0.56080091	     20.90571624	     12.68989303	      0.81493804	      0.00000000	     16.56267511	      8.21613012	     -8.27638727	     17.31033777	      5.00243582	     -5.93394689	      0.00000000	    -10.35650733	      3.74834279	      7.65089555	     17.88783396	    -11.09263044	      0.50820122	     46.42261399	    109.14144351	      0.11318627	     -7.28796928	    -24.49797321	     26.00689728	    119.74817918
      0.03333330	     -7.71901531	      4.21692950	    -57.68553130	      0.03331722	      1.61237255	      0.04073748	    -21.68350065	      6.58764053	      0.33985694	     15.62625373	     13.62933057	      1.91382165	      0.00000000	     18.61087638	      7.78297661	     -8.28917261	     14.99578738	      4.33804345	     -4.25562803	      0.00000000	    -10.50570248	      3.76877045	      8.55918177	     19.85264996	    -11.96256114	      1.73942768	     47.79996690	    110.16145227	      0.75123044	     -8.36283097	    -24.82303827	     26.19284697	    119.74817918
      0.05000000	     -7.82006630	      4.80424077	    -58.15485238	      0.02684348	      1.60806112	      0.03828978	    -22.86998124	      6.45651381	      1.02004793	     12.63199498	     14.79572099	      2.38978776	      0.00000000	     20.46011235	      7.63771711	     -8.57593274	     13.50456564	      4.04514678	     -3.18535317	      0.00000000	    -10.57715540	      3.13809159	      8.50184061	     20.88807445	    -12.11651434	      2.31329230	     49.03668709	    110.82413709	      0.39573677	     -8.75425588	    -25.02878011	     26.17869625	    119.74817918
      0.06666670	     -7.91483103	      4.89485228	    -58.60561609	      0.02638300	      1.60371011	      0.03697504	    -23.71760172	      6.32290594	      1.49355633	     10.87276977	     15.73930532	      2.76311775	      0.00000000	     21.67486057	      7.11257414	     -8.73161228	     12.75374853	      3.87676581	     -2.97287117	      0.00000000	    -10.70541013	      2.88728181	      8.19741736	     20.72482184	    -11.84514287	      2.34093619	     49.38695086	    111.03415952	     -0.12411129	     -9.01050750	    -25.26197481	     25.93508119	    119.74817918
      0.08333330	     -7.21936728	      4.65072602	    -59.38458810	      0.03282433	      1.59727658	      0.04487818	    -25.58055266	      5.45083287	      2.18457090	      9.75756052	     15.71561536	      2.73092485	      0.00000000	     21.48721256	      6.88307539	     -9.02142686	     13.55511914	      4.20776394	     -3.25925716	      0.00000000	    -11.20080892	      1.84897714	      8.55556551	     20.05708701	    -11.13903836	      1.90424486	     49.66117233	    113.57015006	     -0.53570278	     -9.06469613	    -27.59209403	     26.26274403	    119.74817918
